<svg width="162" height="40" viewBox="0 0 162 40" fill="none" xmlns="http://www.w3.org/2000/svg">
<path d="M11.928 5.424C11.816 5.312 11.608 5.16 11.304 4.968C11.016 4.776 10.656 4.592 10.224 4.416C9.808 4.24 9.352 4.088 8.856 3.96C8.36 3.816 7.856 3.744 7.344 3.744C6.448 3.744 5.768 3.912 5.304 4.248C4.856 4.584 4.632 5.056 4.632 5.664C4.632 6.128 4.776 6.496 5.064 6.768C5.352 7.04 5.784 7.272 6.36 7.464C6.936 7.656 7.656 7.864 8.52 8.088C9.64 8.36 10.608 8.696 11.424 9.096C12.256 9.48 12.888 9.992 13.32 10.632C13.768 11.256 13.992 12.088 13.992 13.128C13.992 14.04 13.824 14.824 13.488 15.48C13.152 16.12 12.688 16.64 12.096 17.04C11.504 17.44 10.832 17.736 10.08 17.928C9.328 18.104 8.528 18.192 7.68 18.192C6.832 18.192 5.984 18.104 5.136 17.928C4.288 17.752 3.472 17.504 2.688 17.184C1.904 16.848 1.184 16.448 0.528 15.984L1.992 13.128C2.136 13.272 2.392 13.464 2.76 13.704C3.128 13.928 3.576 14.16 4.104 14.4C4.632 14.624 5.208 14.816 5.832 14.976C6.456 15.136 7.088 15.216 7.728 15.216C8.624 15.216 9.304 15.064 9.768 14.76C10.232 14.456 10.464 14.024 10.464 13.464C10.464 12.952 10.28 12.552 9.912 12.264C9.544 11.976 9.032 11.728 8.376 11.52C7.72 11.296 6.944 11.056 6.048 10.8C4.976 10.496 4.08 10.16 3.36 9.792C2.64 9.408 2.104 8.928 1.752 8.352C1.4 7.776 1.224 7.056 1.224 6.192C1.224 5.024 1.496 4.048 2.04 3.264C2.6 2.464 3.352 1.864 4.296 1.464C5.24 1.048 6.288 0.839999 7.44 0.839999C8.24 0.839999 8.992 0.927999 9.696 1.104C10.416 1.28 11.088 1.512 11.712 1.8C12.336 2.088 12.896 2.4 13.392 2.736L11.928 5.424ZM30.3908 18V6.816L26.0228 15.144H24.1748L19.8068 6.816V18H16.4948V0.959999H20.0468L25.0868 10.656L30.1748 0.959999H33.7028V18H30.3908ZM41.8924 0.959999H45.2524L51.5164 18H48.1084L46.5244 13.752H40.5724L39.0124 18H35.6044L41.8924 0.959999ZM45.9244 11.424L43.5724 4.392L41.1244 11.424H45.9244ZM53.3854 18V0.959999H60.9214C61.7054 0.959999 62.4254 1.12 63.0814 1.44C63.7534 1.76 64.3294 2.192 64.8094 2.736C65.3054 3.28 65.6814 3.888 65.9374 4.56C66.2094 5.232 66.3454 5.92 66.3454 6.624C66.3454 7.344 66.2174 8.04 65.9614 8.712C65.7214 9.368 65.3694 9.944 64.9054 10.44C64.4414 10.936 63.8974 11.32 63.2734 11.592L67.1614 18H63.5134L60.0094 12.288H56.6974V18H53.3854ZM56.6974 9.384H60.8494C61.2654 9.384 61.6334 9.264 61.9534 9.024C62.2734 8.768 62.5294 8.432 62.7214 8.016C62.9134 7.6 63.0094 7.136 63.0094 6.624C63.0094 6.08 62.8974 5.608 62.6734 5.208C62.4494 4.792 62.1614 4.464 61.8094 4.224C61.4734 3.984 61.1054 3.864 60.7054 3.864H56.6974V9.384ZM81.9028 3.864H76.4548V18H73.1668V3.864H67.7188V0.959999H81.9028V3.864ZM82.2748 12.864V9.96H89.5468V12.864H82.2748Z" fill="#333333"/>
<path d="M104.075 3.864H98.6267V18H95.3387V3.864H89.8907V0.959999H104.075V3.864ZM106.19 18V0.959999H113.726C114.51 0.959999 115.23 1.12 115.886 1.44C116.558 1.76 117.134 2.192 117.614 2.736C118.11 3.28 118.486 3.888 118.742 4.56C119.014 5.232 119.15 5.92 119.15 6.624C119.15 7.344 119.022 8.04 118.766 8.712C118.526 9.368 118.174 9.944 117.71 10.44C117.246 10.936 116.702 11.32 116.078 11.592L119.966 18H116.318L112.814 12.288H109.502V18H106.19ZM109.502 9.384H113.654C114.07 9.384 114.438 9.264 114.758 9.024C115.078 8.768 115.334 8.432 115.526 8.016C115.718 7.6 115.814 7.136 115.814 6.624C115.814 6.08 115.702 5.608 115.478 5.208C115.254 4.792 114.966 4.464 114.614 4.224C114.278 3.984 113.91 3.864 113.51 3.864H109.502V9.384ZM126.783 0.959999H130.143L136.407 18H132.999L131.415 13.752H125.463L123.903 18H120.495L126.783 0.959999ZM130.815 11.424L128.463 4.392L126.015 11.424H130.815ZM138.276 18V0.959999H141.588V18H138.276ZM148.455 7.056V18H145.143V0.959999H147.783L156.591 12.192V0.983999H159.903V18H157.143L148.455 7.056Z" fill="#EB2525"/>
<path d="M3.204 25.48H4.884L8.016 34H6.312L5.52 31.876H2.544L1.764 34H0.06L3.204 25.48ZM5.22 30.712L4.044 27.196L2.82 30.712H5.22ZM8.9505 34V25.48H12.0465C12.9745 25.48 13.7505 25.672 14.3745 26.056C14.9985 26.432 15.4665 26.944 15.7785 27.592C16.0905 28.232 16.2465 28.944 16.2465 29.728C16.2465 30.592 16.0745 31.344 15.7305 31.984C15.3865 32.624 14.8985 33.12 14.2665 33.472C13.6425 33.824 12.9025 34 12.0465 34H8.9505ZM14.5785 29.728C14.5785 29.176 14.4785 28.692 14.2785 28.276C14.0785 27.852 13.7905 27.524 13.4145 27.292C13.0385 27.052 12.5825 26.932 12.0465 26.932H10.6065V32.548H12.0465C12.5905 32.548 13.0505 32.428 13.4265 32.188C13.8025 31.94 14.0865 31.604 14.2785 31.18C14.4785 30.748 14.5785 30.264 14.5785 29.728ZM24.4883 34V28.408L22.3043 32.572H21.3803L19.1963 28.408V34H17.5403V25.48H19.3163L21.8363 30.328L24.3803 25.48H26.1443V34H24.4883ZM27.9232 34V25.48H29.5792V34H27.9232ZM33.0128 28.528V34H31.3568V25.48H32.6768L37.0807 31.096V25.492H38.7368V34H37.3568L33.0128 28.528ZM43.3919 34V25.48H47.0039C47.3959 25.48 47.7559 25.56 48.0839 25.72C48.4119 25.88 48.6959 26.096 48.9359 26.368C49.1839 26.64 49.3759 26.944 49.5119 27.28C49.6479 27.616 49.7159 27.96 49.7159 28.312C49.7159 28.792 49.6039 29.248 49.3799 29.68C49.1559 30.112 48.8479 30.464 48.4559 30.736C48.0639 31.008 47.5999 31.144 47.0639 31.144H45.0479V34H43.3919ZM45.0479 29.692H46.9679C47.1679 29.692 47.3479 29.636 47.5079 29.524C47.6679 29.412 47.7959 29.252 47.8919 29.044C47.9879 28.828 48.0359 28.584 48.0359 28.312C48.0359 28.016 47.9799 27.764 47.8679 27.556C47.7639 27.348 47.6239 27.192 47.4479 27.088C47.2799 26.984 47.0959 26.932 46.8959 26.932H45.0479V29.692ZM52.5634 25.48H54.2434L57.3754 34H55.6714L54.8794 31.876H51.9034L51.1234 34H49.4194L52.5634 25.48ZM54.5794 30.712L53.4034 27.196L52.1794 30.712H54.5794ZM59.9659 28.528V34H58.3099V25.48H59.6299L64.0339 31.096V25.492H65.6899V34H64.3099L59.9659 28.528ZM73.3782 32.548V34H67.4622V25.48H73.2702V26.932H69.1182V28.984H72.7062V30.328H69.1182V32.548H73.3782ZM74.6693 34V25.48H76.3253V32.548H80.6693V34H74.6693Z" fill="#333333"/>
</svg>
